<svg version="1.1" id="Layer_1" xmlns="http://www.w3.org/2000/svg" xmlns:xlink="http://www.w3.org/1999/xlink" x="0px" y="0px"
	 width="100%" viewBox="0 0 304 99" enable-background="new 0 0 304 99" xml:space="preserve">
<path fill="#FEFEFE" opacity="1.000000" stroke="none" 
	d="
M294.052002,100.000000 
	C196.045868,100.000000 98.547806,100.000000 1.024878,100.000000 
	C1.024878,67.017258 1.024878,34.034496 1.024878,1.025866 
	C102.314064,1.025866 203.628128,1.025866 304.971100,1.025866 
	C304.971100,33.980053 304.971100,66.960136 304.971100,100.000000 
	C301.520142,100.000000 298.040100,100.000000 294.052002,100.000000 
M100.029060,66.058357 
	C100.055481,60.581394 100.259445,55.096420 100.012970,49.631763 
	C99.925514,47.692822 98.741920,45.803314 97.596710,43.290043 
	C93.948128,42.506874 90.299538,41.723701 86.699142,40.225868 
	C85.941475,36.954159 83.864105,35.765144 80.584373,36.073227 
	C78.317375,36.286175 76.012009,36.258011 73.733788,36.141785 
	C70.896324,35.997025 69.402771,37.157402 68.812752,40.650269 
	C58.584923,38.656334 54.984890,41.719341 54.950848,52.462040 
	C54.937771,56.588627 54.764420,60.727856 55.039780,64.836143 
	C55.160889,66.643021 56.220463,68.386993 57.117237,70.667953 
	C57.791840,70.979858 58.466446,71.291756 60.010246,71.920929 
	C71.672928,71.927254 83.335602,71.933578 95.724937,72.021797 
	C97.112434,70.342621 98.499939,68.663437 100.029060,66.058357 
M152.803604,42.730782 
	C151.579071,43.375511 149.316910,43.980534 149.290482,44.671104 
	C149.026199,51.576775 149.129974,58.496529 149.129974,65.806442 
	C151.446899,65.603790 152.991745,65.468674 155.073822,65.286560 
	C155.073822,60.969597 155.073822,57.157219 155.073822,53.308487 
	C160.920807,56.669750 161.849426,65.192558 169.934570,65.815956 
	C169.934570,57.733673 169.934570,50.338795 169.934570,42.681702 
	C168.164749,42.782108 166.728943,42.863564 164.836517,42.970928 
	C164.836517,47.114365 164.836517,50.992409 164.836517,55.895741 
	C160.585144,50.987598 157.055862,46.913113 152.803604,42.730782 
M133.824097,55.097038 
	C135.973480,48.920197 134.048294,44.200253 128.289749,43.276508 
	C124.038719,42.594589 119.590408,43.142563 115.272224,43.142563 
	C115.272224,50.737080 115.272224,57.966957 115.272224,65.666138 
	C117.064560,65.562569 118.566490,65.475777 119.962059,65.395134 
	C120.297981,63.117237 120.554665,61.376678 120.606407,61.025803 
	C125.493523,59.004597 129.443146,57.371117 133.824097,55.097038 
M222.630630,42.907230 
	C220.786331,43.223194 217.781754,42.957150 217.284363,43.948746 
	C213.828949,50.837330 210.894241,57.987110 207.792511,65.053101 
	C208.289963,65.529984 208.787430,66.006874 209.284897,66.483757 
	C210.898346,65.219490 212.794128,64.186150 214.060440,62.637951 
	C216.062759,60.189911 224.448532,60.258572 226.445892,62.640957 
	C227.798645,64.254494 229.940704,65.206276 231.729752,66.454033 
	C232.150299,65.976532 232.570862,65.499039 232.991425,65.021538 
	C229.715652,57.814114 226.439880,50.606689 222.630630,42.907230 
M180.222244,56.870449 
	C179.575195,48.079002 183.216568,45.400684 191.518066,48.228920 
	C192.752075,48.649326 194.517227,47.510674 196.605072,46.937157 
	C190.256409,41.108547 182.582458,40.974308 177.822678,45.748154 
	C173.133682,50.450989 173.193680,58.063244 177.956635,62.751514 
	C182.707870,67.428223 190.382858,67.135765 196.922012,60.878410 
	C194.239944,60.642395 192.431763,59.989971 190.972443,60.448315 
	C186.770630,61.768044 183.146210,61.893166 180.222244,56.870449 
M240.980331,50.575890 
	C240.980331,48.115887 240.980331,45.655888 240.980331,43.085945 
	C238.919861,43.085945 237.238480,43.085945 235.687057,43.085945 
	C235.687057,50.778271 235.687057,58.032314 235.687057,65.517975 
	C241.251526,65.517975 246.489929,65.517975 251.918015,65.517975 
	C251.918015,63.988655 251.918015,62.614479 251.918015,60.837528 
	C248.136765,60.837528 244.715759,60.837528 240.980484,60.837528 
	C240.980484,57.470657 240.980484,54.504562 240.980331,50.575890 
M138.806702,61.262222 
	C138.345200,65.383926 139.955292,66.653885 143.777542,65.095055 
	C143.777542,57.646645 143.777542,50.420189 143.777542,43.100731 
	C142.047012,43.100731 140.526810,43.100731 138.806717,43.100731 
	C138.806717,49.085190 138.806717,54.699509 138.806702,61.262222 
M199.875000,62.181946 
	C199.549713,66.637222 202.103027,65.936577 204.904968,65.168930 
	C204.904968,57.701954 204.904968,50.462299 204.904968,43.059174 
	C203.169968,43.059174 201.625397,43.059174 199.870361,43.059174 
	C199.870361,49.339504 199.870361,55.293747 199.875000,62.181946 
M108.939461,68.401108 
	C108.939461,56.182102 108.939461,43.963100 108.939461,31.744095 
	C108.479530,31.761175 108.019608,31.778257 107.559677,31.795338 
	C107.559677,46.712753 107.559677,61.630169 107.559677,76.547585 
	C108.019547,76.557808 108.479424,76.568039 108.939293,76.578262 
	C108.939293,74.172394 108.939293,71.766518 108.939461,68.401108 
z"/>
<path fill="#575757" opacity="1.000000" stroke="none" 
	d="
M153.165100,42.784702 
	C157.055862,46.913113 160.585144,50.987598 164.836517,55.895741 
	C164.836517,50.992409 164.836517,47.114365 164.836517,42.970928 
	C166.728943,42.863564 168.164749,42.782108 169.934570,42.681702 
	C169.934570,50.338795 169.934570,57.733673 169.934570,65.815956 
	C161.849426,65.192558 160.920807,56.669750 155.073822,53.308487 
	C155.073822,57.157219 155.073822,60.969597 155.073822,65.286560 
	C152.991745,65.468674 151.446899,65.603790 149.129974,65.806442 
	C149.129974,58.496529 149.026199,51.576775 149.290482,44.671104 
	C149.316910,43.980534 151.579071,43.375511 153.165100,42.784702 
z"/>
<path fill="#EA8F6B" opacity="1.000000" stroke="none" 
	d="
M86.650955,40.940533 
	C90.299538,41.723701 93.948128,42.506874 97.803513,43.983803 
	C97.670952,46.451756 97.331589,48.225956 96.616928,49.990295 
	C94.280350,48.966999 92.319069,47.953568 91.268883,47.410912 
	C90.831802,49.269554 90.412384,50.029945 90.584160,50.617496 
	C90.747879,51.177509 91.528206,51.557262 91.935425,52.246563 
	C91.548050,52.892124 91.262703,53.307381 90.674301,53.821182 
	C89.882950,54.277431 89.394661,54.635147 88.690552,54.841465 
	C87.643356,55.134293 86.811989,55.578510 85.638702,56.016029 
	C84.614426,55.999187 83.932053,55.989040 83.135483,55.770798 
	C83.021271,55.562702 82.955673,55.092514 82.978012,54.693962 
	C83.024567,53.764114 83.048775,53.232811 83.325974,52.754417 
	C83.384804,51.876186 83.190643,50.945045 83.145874,49.762444 
	C83.618553,49.299545 83.941841,49.088108 84.513260,49.059616 
	C85.336563,49.681255 85.911743,50.119953 86.407639,50.498180 
	C87.025032,48.796112 87.530800,47.401787 88.469032,46.008545 
	C91.072220,46.009624 93.242935,46.009624 95.413658,46.009624 
	C95.371765,45.345505 95.329872,44.681385 95.287971,44.017265 
	C92.917633,44.310707 90.547287,44.604145 87.759903,44.899265 
	C86.234436,44.837776 85.126022,44.774605 83.909409,44.587009 
	C83.464203,44.301891 83.191071,44.389248 82.526459,44.785553 
	C78.380913,44.911079 74.690712,44.975700 70.549492,44.990257 
	C67.632339,44.944164 65.082764,44.552715 62.720974,45.051109 
	C59.694290,45.689812 56.284973,46.724258 58.984894,51.480949 
	C58.984482,52.464424 58.977570,53.119320 58.583679,53.925331 
	C58.197529,58.350853 58.198364,62.625263 57.910843,67.095306 
	C57.435074,68.173889 57.247665,69.056839 57.008453,69.994507 
	C56.956650,70.049232 56.853939,70.159531 56.853939,70.159531 
	C56.220463,68.386993 55.160889,66.643021 55.039780,64.836143 
	C54.764420,60.727856 54.937771,56.588627 54.950848,52.462040 
	C54.984890,41.719341 58.584923,38.656334 69.398346,40.378685 
	C71.032997,39.922539 72.076797,39.625568 73.132187,39.576172 
	C75.532516,39.463833 79.087379,38.470665 80.106499,39.638634 
	C82.325821,42.182106 84.307060,41.446461 86.650955,40.940533 
z"/>
<path fill="#555555" opacity="1.000000" stroke="none" 
	d="
M133.608429,55.417336 
	C129.443146,57.371117 125.493523,59.004597 120.606407,61.025803 
	C120.554665,61.376678 120.297981,63.117237 119.962059,65.395134 
	C118.566490,65.475777 117.064560,65.562569 115.272224,65.666138 
	C115.272224,57.966957 115.272224,50.737080 115.272224,43.142563 
	C119.590408,43.142563 124.038719,42.594589 128.289749,43.276508 
	C134.048294,44.200253 135.973480,48.920197 133.608429,55.417336 
M120.249878,52.312862 
	C120.713493,57.362377 124.492432,55.016506 126.519539,54.521534 
	C127.708870,54.231133 128.266403,51.353249 129.108124,49.639252 
	C126.454063,48.485973 123.800003,47.332695 120.233688,45.783009 
	C120.233688,48.856174 120.233688,50.142963 120.249878,52.312862 
z"/>
<path fill="#575757" opacity="1.000000" stroke="none" 
	d="
M222.897369,43.153248 
	C226.439880,50.606689 229.715652,57.814114 232.991425,65.021538 
	C232.570862,65.499039 232.150299,65.976532 231.729752,66.454033 
	C229.940704,65.206276 227.798645,64.254494 226.445892,62.640957 
	C224.448532,60.258572 216.062759,60.189911 214.060440,62.637951 
	C212.794128,64.186150 210.898346,65.219490 209.284897,66.483757 
	C208.787430,66.006874 208.289963,65.529984 207.792511,65.053101 
	C210.894241,57.987110 213.828949,50.837330 217.284363,43.948746 
	C217.781754,42.957150 220.786331,43.223194 222.897369,43.153248 
M223.488068,55.766205 
	C222.539398,53.370911 221.590714,50.975616 220.321579,47.771198 
	C218.963348,51.048439 217.896606,53.622364 216.551071,56.868977 
	C219.438095,56.696457 221.364609,56.581337 223.488068,55.766205 
z"/>
<path fill="#575757" opacity="1.000000" stroke="none" 
	d="
M180.407501,57.236546 
	C183.146210,61.893166 186.770630,61.768044 190.972443,60.448315 
	C192.431763,59.989971 194.239944,60.642395 196.922012,60.878410 
	C190.382858,67.135765 182.707870,67.428223 177.956635,62.751514 
	C173.193680,58.063244 173.133682,50.450989 177.822678,45.748154 
	C182.582458,40.974308 190.256409,41.108547 196.605072,46.937157 
	C194.517227,47.510674 192.752075,48.649326 191.518066,48.228920 
	C183.216568,45.400684 179.575195,48.079002 180.407501,57.236546 
z"/>
<path fill="#636363" opacity="1.000000" stroke="none" 
	d="
M240.980408,51.057178 
	C240.980484,54.504562 240.980484,57.470657 240.980484,60.837528 
	C244.715759,60.837528 248.136765,60.837528 251.918015,60.837528 
	C251.918015,62.614479 251.918015,63.988655 251.918015,65.517975 
	C246.489929,65.517975 241.251526,65.517975 235.687057,65.517975 
	C235.687057,58.032314 235.687057,50.778271 235.687057,43.085945 
	C237.238480,43.085945 238.919861,43.085945 240.980331,43.085945 
	C240.980331,45.655888 240.980331,48.115887 240.980408,51.057178 
z"/>
<path fill="#535353" opacity="1.000000" stroke="none" 
	d="
M138.806702,60.788025 
	C138.806717,54.699509 138.806717,49.085190 138.806717,43.100731 
	C140.526810,43.100731 142.047012,43.100731 143.777542,43.100731 
	C143.777542,50.420189 143.777542,57.646645 143.777542,65.095055 
	C139.955292,66.653885 138.345200,65.383926 138.806702,60.788025 
z"/>
<path fill="#505050" opacity="1.000000" stroke="none" 
	d="
M199.872681,61.714966 
	C199.870361,55.293747 199.870361,49.339504 199.870361,43.059174 
	C201.625397,43.059174 203.169968,43.059174 204.904968,43.059174 
	C204.904968,50.462299 204.904968,57.701954 204.904968,65.168930 
	C202.103027,65.936577 199.549713,66.637222 199.872681,61.714966 
z"/>
<path fill="#666564" opacity="1.000000" stroke="none" 
	d="
M108.939377,68.880875 
	C108.939293,71.766518 108.939293,74.172394 108.939293,76.578262 
	C108.479424,76.568039 108.019547,76.557808 107.559677,76.547585 
	C107.559677,61.630169 107.559677,46.712753 107.559677,31.795338 
	C108.019608,31.778257 108.479530,31.761175 108.939461,31.744095 
	C108.939461,43.963100 108.939461,56.182102 108.939377,68.880875 
z"/>
<path fill="#DD9372" opacity="1.000000" stroke="none" 
	d="
M94.998283,71.939903 
	C83.335602,71.933578 71.672928,71.927254 59.750820,71.586555 
	C59.996368,70.839081 60.501343,70.425980 61.468285,70.009506 
	C65.086990,70.031517 68.251129,70.205704 71.398827,70.049232 
	C76.828049,69.779343 82.253334,69.365540 87.660202,68.815010 
	C88.175858,68.762512 88.549652,67.316757 89.383820,66.428192 
	C90.847542,66.390686 91.916763,66.442795 93.003433,66.832031 
	C93.680023,68.759399 94.339157,70.349655 94.998283,71.939903 
z"/>
<path fill="#E49B7C" opacity="1.000000" stroke="none" 
	d="
M86.675049,40.583199 
	C84.307060,41.446461 82.325821,42.182106 80.106499,39.638634 
	C79.087379,38.470665 75.532516,39.463833 73.132187,39.576172 
	C72.076797,39.625568 71.032997,39.922539 69.669662,40.075348 
	C69.402771,37.157402 70.896324,35.997025 73.733788,36.141785 
	C76.012009,36.258011 78.317375,36.286175 80.584373,36.073227 
	C83.864105,35.765144 85.941475,36.954159 86.675049,40.583199 
z"/>
<path fill="#D99779" opacity="1.000000" stroke="none" 
	d="
M90.977356,53.722641 
	C91.262703,53.307381 91.548050,52.892124 92.301636,52.242085 
	C94.177330,51.338253 95.584778,50.669201 96.992226,50.000153 
	C97.331589,48.225956 97.670952,46.451756 98.034515,44.284397 
	C98.741920,45.803314 99.925514,47.692822 100.012970,49.631763 
	C100.259445,55.096420 100.055481,60.581394 99.695320,66.396957 
	C98.851852,66.456787 98.342125,66.178032 97.856094,65.446442 
	C97.879807,61.461861 97.879807,57.930111 97.879807,54.282993 
	C95.159103,54.062122 93.068230,53.892380 90.977356,53.722641 
z"/>
<path fill="#EA9A76" opacity="1.000000" stroke="none" 
	d="
M97.832390,65.899277 
	C98.342125,66.178032 98.851852,66.456787 99.624512,66.859909 
	C98.499939,68.663437 97.112434,70.342621 95.361610,71.980850 
	C94.339157,70.349655 93.680023,68.759399 93.397202,66.720909 
	C95.126465,66.148201 96.479431,66.023743 97.832390,65.899277 
z"/>
<path fill="#EA8F6B" opacity="1.000000" stroke="none" 
	d="
M61.006317,70.012878 
	C60.501343,70.425980 59.996368,70.839081 59.316223,71.427917 
	C58.466446,71.291756 57.791840,70.979858 56.985588,70.413742 
	C56.853939,70.159531 56.956650,70.049232 57.401390,70.015472 
	C58.899525,69.992096 59.952919,70.002487 61.006317,70.012878 
z"/>
<path fill="#F18F66" opacity="1.000000" stroke="none" 
	d="
M61.468285,70.009506 
	C59.952919,70.002487 58.899525,69.992096 57.453194,69.960739 
	C57.247665,69.056839 57.435074,68.173889 58.347298,67.111160 
	C62.374264,66.617653 65.676414,66.303932 69.332794,65.983391 
	C70.159203,65.963898 70.631371,65.951233 71.468781,66.000999 
	C75.705185,67.221146 79.692459,69.612122 83.010757,65.005020 
	C83.000168,64.999916 83.006355,65.021439 83.285690,64.991974 
	C83.716766,64.645256 83.868500,64.328003 84.009201,64.005356 
	C83.998161,63.999973 84.008308,64.022766 84.312462,64.088150 
	C84.820885,64.117668 85.025162,64.081810 85.474686,63.872665 
	C86.079819,63.101353 86.439728,62.503326 86.934807,61.680691 
	C85.195717,61.779133 83.928360,61.850876 82.742157,61.679607 
	C82.902214,61.285103 82.981094,61.133606 83.376175,60.843498 
	C86.096870,59.946510 88.113327,58.998501 85.980621,56.022728 
	C86.811989,55.578510 87.643356,55.134293 88.776184,55.271034 
	C88.607208,58.629375 88.023399,61.395416 87.743637,64.191864 
	C87.670959,64.918373 88.548317,65.739922 88.989304,66.517807 
	C88.549652,67.316757 88.175858,68.762512 87.660202,68.815010 
	C82.253334,69.365540 76.828049,69.779343 71.398827,70.049232 
	C68.251129,70.205704 65.086990,70.031517 61.468285,70.009506 
z"/>
<path fill="#FFF8EF" opacity="1.000000" stroke="none" 
	d="
M68.978561,65.990219 
	C65.676414,66.303932 62.374264,66.617653 58.635658,66.915527 
	C58.198364,62.625263 58.197529,58.350853 59.010201,53.998062 
	C61.926979,53.919678 64.030251,53.919678 64.854721,53.919678 
	C66.430443,58.531845 67.704498,62.261032 68.978561,65.990219 
z"/>
<path fill="#FFF7EE" opacity="1.000000" stroke="none" 
	d="
M89.383820,66.428192 
	C88.548317,65.739922 87.670959,64.918373 87.743637,64.191864 
	C88.023399,61.395416 88.607208,58.629375 88.992012,55.422428 
	C89.394661,54.635147 89.882950,54.277431 90.674301,53.821178 
	C93.068230,53.892380 95.159103,54.062122 97.879807,54.282993 
	C97.879807,57.930111 97.879807,61.461861 97.856094,65.446442 
	C96.479431,66.023743 95.126465,66.148201 93.379745,66.383789 
	C91.916763,66.442795 90.847542,66.390686 89.383820,66.428192 
z"/>
<path fill="#FEF7F0" opacity="1.000000" stroke="none" 
	d="
M83.059967,60.982113 
	C82.981094,61.133606 82.902214,61.285103 82.450081,61.829903 
	C80.384178,62.815491 78.691528,63.407780 76.674637,63.864731 
	C71.297508,60.675911 70.846970,58.442753 74.553802,53.045132 
	C78.255737,51.125862 80.632828,53.006176 82.955673,55.092514 
	C82.955673,55.092514 83.021271,55.562702 83.192307,56.085953 
	C83.262222,58.066841 83.161095,59.524479 83.059967,60.982113 
z"/>
<path fill="#E89A79" opacity="1.000000" stroke="none" 
	d="
M69.332794,65.983391 
	C67.704498,62.261032 66.430443,58.531845 64.854721,53.919678 
	C64.030251,53.919678 61.926979,53.919678 59.397182,53.846947 
	C58.977570,53.119320 58.984482,52.464424 59.378319,51.436821 
	C64.972511,53.301182 68.772011,50.876957 72.604202,47.252594 
	C76.916084,46.606201 80.931915,45.440014 84.265129,48.876671 
	C83.941841,49.088108 83.618553,49.299545 82.784729,49.593277 
	C79.023911,49.048470 75.630150,47.426971 72.992371,51.006218 
	C72.996681,50.997089 73.016579,50.993717 72.703102,50.952271 
	C71.919533,51.277763 71.449432,51.644703 70.988731,52.004700 
	C70.998131,51.997761 71.011772,51.978771 70.712143,52.170708 
	C67.712387,56.397366 66.912727,60.334236 71.006508,64.010727 
	C71.000328,64.002617 70.986046,63.987648 70.988358,64.313957 
	C71.028305,65.073036 71.065926,65.505798 71.103546,65.938568 
	C70.631371,65.951233 70.159203,65.963898 69.332794,65.983391 
z"/>
<path fill="#FEFBF5" opacity="1.000000" stroke="none" 
	d="
M72.223816,47.301468 
	C68.772011,50.876957 64.972511,53.301182 59.371819,51.108246 
	C56.284973,46.724258 59.694290,45.689812 62.720974,45.051109 
	C65.082764,44.552715 67.632339,44.944164 70.683418,45.278545 
	C71.586853,46.178421 71.905334,46.739944 72.223816,47.301468 
z"/>
<path fill="#FFF1E2" opacity="1.000000" stroke="none" 
	d="
M72.604202,47.252594 
	C71.905334,46.739944 71.586853,46.178421 71.134445,45.328613 
	C74.690712,44.975700 78.380913,44.911079 82.786072,44.833027 
	C83.673233,44.783543 83.845413,44.747486 84.017601,44.711433 
	C85.126022,44.774605 86.234436,44.837776 87.729843,45.177750 
	C88.090073,45.638855 88.063324,45.823158 88.036568,46.007462 
	C87.530800,47.401787 87.025032,48.796112 86.407639,50.498180 
	C85.911743,50.119953 85.336563,49.681255 84.513260,49.059616 
	C80.931915,45.440014 76.916084,46.606201 72.604202,47.252594 
z"/>
<path fill="#E59876" opacity="1.000000" stroke="none" 
	d="
M82.978012,54.693962 
	C80.632828,53.006176 78.255737,51.125862 74.290565,52.910896 
	C73.445778,52.545181 73.208229,52.239609 72.996315,51.699646 
	C73.021942,51.465256 73.016579,50.993717 73.016579,50.993717 
	C73.016579,50.993717 72.996681,50.997089 73.383377,50.969864 
	C77.227638,49.642883 80.537865,49.122402 83.072990,52.701511 
	C83.048775,53.232811 83.024567,53.764114 82.978012,54.693962 
z"/>
<path fill="#F19771" opacity="1.000000" stroke="none" 
	d="
M96.616928,49.990292 
	C95.584778,50.669201 94.177330,51.338253 92.403671,52.011780 
	C91.528206,51.557262 90.747879,51.177509 90.584160,50.617496 
	C90.412384,50.029945 90.831802,49.269554 91.268883,47.410912 
	C92.319069,47.953568 94.280350,48.966999 96.616928,49.990292 
z"/>
<path fill="#FFD7B8" opacity="1.000000" stroke="none" 
	d="
M83.325974,52.754417 
	C80.537865,49.122402 77.227638,49.642883 73.379066,50.978989 
	C75.630150,47.426971 79.023911,49.048470 82.635338,49.844742 
	C83.190643,50.945045 83.384804,51.876186 83.325974,52.754417 
z"/>
<path fill="#F19771" opacity="1.000000" stroke="none" 
	d="
M88.469032,46.008545 
	C88.063324,45.823158 88.090073,45.638855 88.146881,45.176071 
	C90.547287,44.604145 92.917633,44.310707 95.287971,44.017265 
	C95.329872,44.681385 95.371765,45.345505 95.413658,46.009624 
	C93.242935,46.009624 91.072220,46.009624 88.469032,46.008545 
z"/>
<path fill="#E59876" opacity="1.000000" stroke="none" 
	d="
M83.376175,60.843498 
	C83.161095,59.524479 83.262222,58.066841 83.306519,56.294048 
	C83.932053,55.989040 84.614426,55.999187 85.638702,56.016029 
	C88.113327,58.998501 86.096870,59.946510 83.376175,60.843498 
z"/>
<path fill="#F8A686" opacity="1.000000" stroke="none" 
	d="
M83.909409,44.587009 
	C83.845413,44.747486 83.673233,44.783543 83.241432,44.772125 
	C83.191071,44.389248 83.464203,44.301891 83.909409,44.587009 
z"/>
<path fill="#F4F4F4" opacity="1.000000" stroke="none" 
	d="
M120.241783,51.871307 
	C120.233688,50.142963 120.233688,48.856174 120.233688,45.783009 
	C123.800003,47.332695 126.454063,48.485973 129.108124,49.639252 
	C128.266403,51.353249 127.708870,54.231133 126.519539,54.521534 
	C124.492432,55.016506 120.713493,57.362377 120.241783,51.871307 
z"/>
<path fill="#E6E6E6" opacity="1.000000" stroke="none" 
	d="
M223.389587,56.116211 
	C221.364609,56.581337 219.438095,56.696457 216.551071,56.868977 
	C217.896606,53.622364 218.963348,51.048439 220.321579,47.771198 
	C221.590714,50.975616 222.539398,53.370911 223.389587,56.116211 
z"/>
<path fill="#FFD7B8" opacity="1.000000" stroke="none" 
	d="
M71.468781,66.000999 
	C71.065926,65.505798 71.028305,65.073036 71.358337,64.303917 
	C73.813950,64.627594 75.901909,65.287613 78.361984,65.973221 
	C80.163193,65.669243 81.592270,65.339691 83.021347,65.010132 
	C79.692459,69.612122 75.705185,67.221146 71.468781,66.000999 
z"/>
<path fill="#E59876" opacity="1.000000" stroke="none" 
	d="
M83.010757,65.005020 
	C81.592270,65.339691 80.163193,65.669243 78.253021,65.722748 
	C77.514236,64.964478 77.256554,64.482269 76.998871,64.000069 
	C78.691528,63.407780 80.384178,62.815491 82.368912,62.072906 
	C83.928360,61.850876 85.195717,61.779133 86.934807,61.680691 
	C86.439728,62.503326 86.079819,63.101353 85.357361,63.647655 
	C84.665970,63.738205 84.337135,63.880482 84.008308,64.022766 
	C84.008308,64.022766 83.998161,63.999973 83.743027,64.054558 
	C83.327377,64.413239 83.166862,64.717339 83.006355,65.021439 
	C83.006355,65.021439 83.000168,64.999916 83.010757,65.005020 
z"/>
<path fill="#FFD7B8" opacity="1.000000" stroke="none" 
	d="
M84.312462,64.088150 
	C84.337135,63.880482 84.665970,63.738205 85.112122,63.820938 
	C85.025162,64.081810 84.820885,64.117668 84.312462,64.088150 
z"/>
<path fill="#FFD7B8" opacity="1.000000" stroke="none" 
	d="
M83.285690,64.991974 
	C83.166862,64.717339 83.327377,64.413239 83.754059,64.059937 
	C83.868500,64.328003 83.716766,64.645256 83.285690,64.991974 
z"/>
<path fill="#E4977C" opacity="1.000000" stroke="none" 
	d="
M76.674637,63.864731 
	C77.256554,64.482269 77.514236,64.964478 77.880890,65.697159 
	C75.901909,65.287613 73.813950,64.627594 71.356018,63.977608 
	C70.986046,63.987648 71.000328,64.002617 71.009544,63.602577 
	C71.016426,59.461285 71.014099,55.720028 71.011772,51.978771 
	C71.011772,51.978771 70.998131,51.997761 71.320007,52.061108 
	C72.084816,52.060982 72.527748,51.997509 72.970688,51.934036 
	C73.208229,52.239609 73.445778,52.545181 73.946564,52.984985 
	C70.846970,58.442753 71.297508,60.675911 76.674637,63.864731 
z"/>
<path fill="#FFD7B8" opacity="1.000000" stroke="none" 
	d="
M70.712143,52.170708 
	C71.014099,55.720028 71.016426,59.461285 71.015724,63.610687 
	C66.912727,60.334236 67.712387,56.397366 70.712143,52.170708 
z"/>
<path fill="#FFD7B8" opacity="1.000000" stroke="none" 
	d="
M72.996315,51.699646 
	C72.527748,51.997509 72.084816,52.060982 71.310608,52.068047 
	C71.449432,51.644703 71.919533,51.277763 72.703102,50.952271 
	C73.016579,50.993717 73.021942,51.465256 72.996315,51.699646 
z"/>
</svg>